# xmcd
#
# Track frame offsets: 
#        150
#        21555
#        41007
#        57130
#        82195
#        98617
#        114992
#        133630
#        156730
#        176982
#        196697
#        215770
#
# Disc length: 3079 seconds
#
# Revision: 0
# Processed by: cddbd v1.4PL0 Copyright (c) Steve Scherf et al.
# Submitted via: ExactAudioCopy v0.90b4
#
DISCID=ae0c050c
DTITLE=Lindenberg, Udo - Desperado
DYEAR=1900
DGENRE=Pop
TTITLE0=We could Be Friends
TTITLE1=Ganz egal
TTITLE2=Angelika
TTITLE3=Der sizilianische Wolf
TTITLE4=Ich sitz' den ganzen Tag bei den Docks
TTITLE5=Gegen die Stroemung
TTITLE6=Jenny
TTITLE7=Lady Whisky
TTITLE8=Emanuel Flippman und die Randale Soehne
TTITLE9=Flipper
TTITLE10=Riskante Spiele
TTITLE11=Desperado
EXTD=
EXTT0=
EXTT1=
EXTT2=
EXTT3=
EXTT4=
EXTT5=
EXTT6=
EXTT7=
EXTT8=
EXTT9=
EXTT10=
EXTT11=
PLAYORDER=
